<svg id="圖層_1" data-name="圖層 1" xmlns="http://www.w3.org/2000/svg" viewBox="0 0 200 200"><defs><style>.cls-1{fill:#ccc;}</style></defs><path class="cls-1" d="M197.48,89.29c0-18-15.74-32.6-35.15-32.6-1.08,0-2.15.05-3.21.14a.71.71,0,0,0,0-.14c0-23.74-20.75-43-46.35-43-23,0-42,15.48-45.68,35.79a37.75,37.75,0,0,0-3.86-.22c-15.8,0-29,10.16-32.58,23.8-.59,0-1.18-.08-1.78-.08-14.56,0-26.36,11-26.36,24.45s11.8,24.46,26.36,24.46H41.33l32-31a40.21,40.21,0,0,1,28.21-11.24h0a40.28,40.28,0,0,1,28.24,11.24l32,31h.47C181.74,121.9,197.48,107.3,197.48,89.29Z"/><path class="cls-1" d="M153.31,134l-34.47-33.4a25,25,0,0,0-34.48,0L49.88,134c-9.48,9.18-4.29,16.7,11.53,16.7h9.82v23.71C71.23,181,77,186.3,84,186.3h36.75c7,0,12.79-5.34,12.79-11.86V150.73h8.22C157.6,150.73,162.79,143.21,153.31,134Z"/></svg>