<svg id="圖層_1" data-name="圖層 1" xmlns="http://www.w3.org/2000/svg" viewBox="0 0 35 30"><defs><style>.cls-1{fill:#666;}.cls-2{fill:#fff;stroke:#666;stroke-miterlimit:10;stroke-width:1.38px;}</style></defs><path class="cls-1" d="M14.32,10.47a1,1,0,0,1-1,1H2.12a1,1,0,0,1-1-1v-7a1,1,0,0,1,1-1H10.5A2,2,0,0,1,12,3.34l1.76,2.8A4,4,0,0,1,14.32,8Z"/><rect class="cls-2" x="1.59" y="6.75" width="32.31" height="20.75" rx="1.23"/><path class="cls-1" d="M23.86,21.29V17.88H20.48V16.46h3.38V13.08H25.3v3.38h3.38v1.42H25.3v3.41Z"/></svg>