<svg xmlns="http://www.w3.org/2000/svg" xmlns:xlink="http://www.w3.org/1999/xlink" viewBox="0 0 80 75"><defs><style>.cls-1{isolation:isolate;}.cls-2{fill:url(#linear-gradient);}.cls-3{fill:url(#linear-gradient-2);}.cls-4{font-size:19.33px;fill:#fff;font-family:Arial-BoldMT, Arial;font-weight:700;letter-spacing:0.05em;}.cls-5{fill:#221e1f;opacity:0.48;mix-blend-mode:multiply;}</style><linearGradient id="linear-gradient" x1="40" y1="72.83" x2="40" y2="2.2" gradientUnits="userSpaceOnUse"><stop offset="0" stop-color="#dbdcdd"/><stop offset="0.14" stop-color="#e0e1e2"/><stop offset="0.58" stop-color="#ededee"/><stop offset="1" stop-color="#f1f1f2"/></linearGradient><linearGradient id="linear-gradient-2" x1="40" y1="25.22" x2="40" y2="2.17" gradientUnits="userSpaceOnUse"><stop offset="0" stop-color="#7fb439"/><stop offset="1" stop-color="#bed62f"/></linearGradient></defs><g class="cls-1"><g id="圖層_1" data-name="圖層 1"><polygon class="cls-2" points="68.25 72.83 11.75 72.83 11.75 2.21 51.3 2.21 68.25 19.16 68.25 72.83"/><rect class="cls-3" x="11.75" y="2.17" width="56.5" height="23.05"/><text class="cls-4" transform="translate(22.44 21.26)">GIF</text><path class="cls-5" d="M42.39,55.9v3.15H53.7V47.74h-6a6.51,6.51,0,0,1,0,.77A7.78,7.78,0,0,1,42.39,55.9Zm-9.77-4.82h.05a7.76,7.76,0,0,1,5.15-10,6.36,6.36,0,1,0-5.2,10ZM20.94,33.15V64.34H59.06V33.15ZM56.23,61.51H23.77V36H56.23Zm-22.59-13A6.36,6.36,0,1,0,40,42.15,6.35,6.35,0,0,0,33.64,48.51Zm3.55-3c0-.88.63-1.24,1.4-.8l5.25,3a.85.85,0,0,1,0,1.61l-5.25,3c-.77.45-1.4.08-1.4-.8Z"/></g></g></svg>