<svg xmlns="http://www.w3.org/2000/svg" xmlns:xlink="http://www.w3.org/1999/xlink" viewBox="0 0 80 75"><defs><style>.cls-1{isolation:isolate;}.cls-2{fill:url(#linear-gradient);}.cls-3{fill:#221e1f;opacity:0.48;mix-blend-mode:multiply;}.cls-4{fill:url(#linear-gradient-2);}.cls-5{fill:url(#linear-gradient-3);}.cls-6{font-size:19.31px;fill:#fff;font-family:Arial-BoldMT, Arial;font-weight:700;letter-spacing:0.05em;}</style><linearGradient id="linear-gradient" x1="40" y1="72.85" x2="40" y2="2.22" gradientUnits="userSpaceOnUse"><stop offset="0" stop-color="#dbdcdd"/><stop offset="0.14" stop-color="#e0e1e2"/><stop offset="0.58" stop-color="#ededee"/><stop offset="1" stop-color="#f1f1f2"/></linearGradient><linearGradient id="linear-gradient-2" x1="40" y1="24.82" x2="40" y2="2.22" gradientUnits="userSpaceOnUse"><stop offset="0" stop-color="#7b6540"/><stop offset="1" stop-color="#b99664"/></linearGradient><linearGradient id="linear-gradient-3" x1="39.98" y1="25.18" x2="39.98" y2="2.15" gradientUnits="userSpaceOnUse"><stop offset="0" stop-color="#00adee"/><stop offset="1" stop-color="#6ccef5"/></linearGradient></defs><g class="cls-1"><g id="圖層_1" data-name="圖層 1"><polygon class="cls-2" points="68.25 72.84 11.75 72.84 11.75 2.22 51.3 2.22 68.25 19.17 68.25 72.84"/><path class="cls-3" d="M40,33A15.38,15.38,0,1,0,55.37,48.36,15.37,15.37,0,0,0,40,33Zm9.29,17.32L36.58,57.65c-1.85,1.07-3.37.19-3.37-1.95V41c0-2.14,1.52-3,3.37-2l12.71,7.34C51.14,47.49,51.14,49.24,49.29,50.31Z"/><polygon class="cls-4" points="51.3 2.22 11.75 2.22 11.75 24.82 68.25 24.82 68.25 19.17 51.3 2.22"/><rect class="cls-5" x="11.76" y="2.15" width="56.45" height="23.02"/><text class="cls-6" transform="translate(19.37 21.22)">MP4</text></g></g></svg>