<svg xmlns="http://www.w3.org/2000/svg" xmlns:xlink="http://www.w3.org/1999/xlink" viewBox="0 0 80 75"><defs><style>.cls-1{isolation:isolate;}.cls-2{fill:url(#linear-gradient);}.cls-3{fill:#221e1f;stroke:#221e1f;stroke-linecap:round;stroke-linejoin:round;stroke-width:0.56px;fill-rule:evenodd;opacity:0.48;mix-blend-mode:multiply;}.cls-4{fill:url(#linear-gradient-2);}.cls-5{font-size:19.33px;fill:#fff;font-family:Arial-BoldMT, Arial;font-weight:700;letter-spacing:0.05em;}</style><linearGradient id="linear-gradient" x1="40" y1="73.15" x2="40" y2="2.52" gradientUnits="userSpaceOnUse"><stop offset="0" stop-color="#dbdcdd"/><stop offset="0.14" stop-color="#e0e1e2"/><stop offset="0.58" stop-color="#ededee"/><stop offset="1" stop-color="#f1f1f2"/></linearGradient><linearGradient id="linear-gradient-2" x1="40" y1="24.9" x2="40" y2="1.85" gradientUnits="userSpaceOnUse"><stop offset="0" stop-color="#c3141b"/><stop offset="1" stop-color="#ec1b23"/></linearGradient></defs><g class="cls-1"><g id="圖層_1" data-name="圖層 1"><polygon class="cls-2" points="68.25 73.15 11.75 73.15 11.75 2.52 51.3 2.52 68.25 19.47 68.25 73.15"/><path class="cls-3" d="M57.46,56.45c1.13-2.4-3.69-3.23-10.26-2.47a25.07,25.07,0,0,1-3.29-2.19c-2.53-2.08-4.39-5.56-5.55-9a47.5,47.5,0,0,0,.55-8.09c-.24,1.22-.42,3.26-1.11,6.17-.89-3.39-1.08-6.55-.54-8.13a2.09,2.09,0,0,1,.53-.84A2.48,2.48,0,0,1,39,34c.45-2.34-.7-2.26-1-2.26h-.72c-.4,0-.76.32-.94,1-.59,2.21-.3,6.2.93,10.21a57.18,57.18,0,0,1-3.87,9.78C28.7,62.12,25.17,67,22.68,67c-.24-1.19,2.25-4.73,5.7-7.3-5.73,3-6.94,6.52-6.4,7.17l.89.46c1.67.85,4.53-1.4,9-9.18A65.81,65.81,0,0,1,46.65,55C51.47,57.6,57,58.49,57.3,56.82c-1.25.6-4.84-.23-8.47-2C53.8,54.52,57.56,55,57.46,56.45ZM31.94,58.08c.78-1.36,1.61-2.88,2.49-4.58a40.59,40.59,0,0,0,3.48-8.7A19.45,19.45,0,0,0,43,52.56a18.59,18.59,0,0,0,2.3,1.68A54.57,54.57,0,0,0,31.94,58.08Z"/><rect class="cls-4" x="11.75" y="1.85" width="56.5" height="23.05"/><text class="cls-5" transform="translate(21.09 20.94)">PDF</text></g></g></svg>