<svg xmlns="http://www.w3.org/2000/svg" xmlns:xlink="http://www.w3.org/1999/xlink" viewBox="0 0 80 75"><defs><style>.cls-1{isolation:isolate;}.cls-2{fill:url(#linear-gradient);}.cls-3{fill:#221e1f;opacity:0.48;mix-blend-mode:multiply;}.cls-4{fill:url(#linear-gradient-2);}.cls-5{font-size:19.31px;fill:#fff;font-family:Arial-BoldMT, Arial;font-weight:700;letter-spacing:0.05em;}</style><linearGradient id="linear-gradient" x1="40" y1="73.14" x2="40" y2="2.52" gradientUnits="userSpaceOnUse"><stop offset="0" stop-color="#dbdcdd"/><stop offset="0.14" stop-color="#e0e1e2"/><stop offset="0.58" stop-color="#ededee"/><stop offset="1" stop-color="#f1f1f2"/></linearGradient><linearGradient id="linear-gradient-2" x1="11.75" y1="13.37" x2="68.2" y2="13.37" gradientUnits="userSpaceOnUse"><stop offset="0" stop-color="#f399c0"/><stop offset="1" stop-color="#f7c1d8"/></linearGradient></defs><g class="cls-1"><g id="圖層_1" data-name="圖層 1"><polygon class="cls-2" points="68.25 73.14 11.75 73.14 11.75 2.52 51.3 2.52 68.25 19.47 68.25 73.14"/><path class="cls-3" d="M48.66,64.53h3.46V61.06H48.66Zm-6.93,0h3.46V61.06H41.73Zm0-17.32V43.75H38.27v3.46ZM31.34,50.68v3.46h3.47V50.68Zm27.7,0V47.21H55.58v3.47Zm0-6.93V40.29H55.58v3.46ZM59,57.6V54.14H55.58V57.6Zm0,6.93V61.06H55.58v3.47ZM38.27,50.68v3.46h3.46V50.68ZM21,64.53h3.46V61.06H21ZM31.34,33.36H27.88v3.47h3.46Zm6.93,0H34.81v3.47h3.46Zm6.92,0H41.73v3.47h3.46ZM21,54.14V57.6h3.46V54.14Zm0-20.78v3.47h3.46V33.36Zm0,13.85v3.47h3.46V47.21ZM52.12,33.36H48.66v3.47h3.46ZM27.88,64.53h3.46V61.06H27.88ZM41.73,50.68h3.46V47.21H41.73Zm-6.92-3.47v3.47h3.46V47.21ZM21,40.29v3.46h3.46V40.29ZM34.81,64.53h3.46V61.06H34.81Zm0-20.78H31.34v3.46h3.47ZM24.42,57.6v3.46h3.46V57.6Zm3.46-6.92H24.42v3.46h3.46Zm3.46,6.92v3.46h3.47V57.6ZM27.88,43.75H24.42v3.46h3.46Zm0-6.92H24.42v3.46h3.46ZM45.19,54.14h3.47V50.68H45.19Zm6.93,6.92h3.46V57.6H52.12Zm0-24.23v3.46h3.46V36.83Zm0,10.38h3.46V43.75H52.12ZM59,33.36H55.58v3.47H59ZM52.12,54.14h3.46V50.68H52.12ZM34.81,40.29V36.83H31.34v3.46ZM45.19,57.6v3.46h3.47V57.6Zm-6.92,0v3.46h3.46V57.6Zm3.46-17.31V36.83H38.27v3.46Zm-3.46,3.46V40.29H34.81v3.46Zm-6.93,3.46H27.88v3.47h3.46Zm13.85-3.46V40.29H41.73v3.46ZM27.88,54.14V57.6h3.46V54.14Zm17.31-6.93h3.47V43.75H45.19ZM31.34,40.29H27.88v3.46h3.46Zm17.32,3.46h3.46V40.29H48.66Zm0-3.46V36.83H45.19v3.46Zm0,10.39h3.46V47.21H48.66Zm0,6.92h3.46V54.14H48.66ZM34.81,54.14V57.6h3.46V54.14Zm6.92,0V57.6h3.46V54.14Z"/><rect class="cls-4" x="11.75" y="1.86" width="56.45" height="23.02"/><text class="cls-5" transform="translate(18.11 20.99)">PNG</text></g></g></svg>