<svg xmlns="http://www.w3.org/2000/svg" xmlns:xlink="http://www.w3.org/1999/xlink" viewBox="0 0 80 75"><defs><style>.cls-1{isolation:isolate;}.cls-2{fill:url(#linear-gradient);}.cls-3{fill:#221e1f;opacity:0.48;mix-blend-mode:multiply;}.cls-4{fill:url(#linear-gradient-2);}.cls-5{font-size:19.31px;fill:#fff;font-family:Arial-BoldMT, Arial;font-weight:700;letter-spacing:0.05em;}</style><linearGradient id="linear-gradient" x1="40" y1="72.99" x2="40" y2="2.36" gradientUnits="userSpaceOnUse"><stop offset="0" stop-color="#dbdcdd"/><stop offset="0.14" stop-color="#e0e1e2"/><stop offset="0.58" stop-color="#ededee"/><stop offset="1" stop-color="#f1f1f2"/></linearGradient><linearGradient id="linear-gradient-2" x1="39.98" y1="25.04" x2="39.98" y2="2.01" gradientUnits="userSpaceOnUse"><stop offset="0" stop-color="#eb008b"/><stop offset="1" stop-color="#f072ab"/></linearGradient></defs><g class="cls-1"><g id="圖層_1" data-name="圖層 1"><polygon class="cls-2" points="68.25 72.99 11.75 72.99 11.75 2.36 51.3 2.36 68.25 19.31 68.25 72.99"/><path class="cls-3" d="M28.64,46.41h1.9l.36,1h1.35V44H30.9l-.36,1h-1.9V44l-5.59.7v2l5.59.71Zm0-5.4h1.9l.36,1h1.35V38.61H30.9l-.36,1h-1.9v-1l-5.59.7v2l5.59.71Zm0,10.8h1.9l.36,1h1.35V49.41H30.9l-.36,1h-1.9v-1l-5.59.7v2l5.59.7Zm0,5.4h1.9l.36,1h1.35V54.81H30.9l-.36,1h-1.9v-1l-5.59.7v2l5.59.7Zm0-21.6h1.9l.36,1h1.35V33.21H30.9l-.36,1h-1.9v-1l-5.59.7v2l5.59.71Zm0,32.4h1.9l.36,1h1.35V65.61H30.9l-.36,1h-1.9v-1l-5.59.71v2l5.59.7Zm0-54h1.9l.36,1h1.35V11.6H30.9l-.36,1h-1.9v-1l-5.59.71v2l5.59.71Zm0-5.4h1.9l.36,1h1.35V6.2H30.9l-.36,1h-1.9v-1l-5.59.71v2l5.59.71Zm0-5.4h1.9l.36,1h1.35V2.36h-9.2V3.53l5.59.71Zm0,27h1.9l.36,1h1.35V27.8H30.9l-.36,1h-1.9v-1l-5.59.71v2l5.59.71ZM30.54,72h-1.9V71l-5.59.71V73h9.2V71H30.9Zm-1.9-47.23h1.9l.36,1h1.35V22.4H30.9l-.36,1h-1.9v-1l-5.59.71v2l5.59.71Zm0-5.4h1.9l.36,1h1.35V17H30.9l-.36,1h-1.9V17l-5.59.71v2l5.59.71Zm0,43.2h1.9l.36,1h1.35V60.21H30.9l-.36,1h-1.9v-1l-5.59.7v2l5.59.7Zm3.9-31.08h-1.9l-.35-1H28.94v3.44h1.35l.35-1h1.9v1l5.6-.71v-2l-5.6-.71Zm0-10.8h-1.9l-.35-1H28.94v3.44h1.35l.35-1h1.9v1l5.6-.71v-2l-5.6-.71Zm0,48.61h-1.9l-.35-1H28.94v3.43h1.35l.35-1h1.9v1l5.6-.7V69l-5.6-.71Zm0-54h-1.9l-.35-1H28.94v3.44h1.35l.35-1h1.9v1l5.6-.71V15l-5.6-.71Zm0-11.83v1h-1.9l-.35-1H28.94V6.94h1.35l.35-1h1.9v1l5.6-.71v-2Zm0,6.43h-1.9l-.35-1H28.94v3.44h1.35l.35-1h1.9v1l5.6-.71v-2l-5.6-.71Zm0,16.2h-1.9l-.35-1H28.94v3.44h1.35l.35-1h1.9v1l5.6-.71v-2l-5.6-.71Zm0,27h-1.9l-.35-1H28.94v3.43h1.35l.35-1h1.9v1l5.6-.7v-2l-5.6-.7Zm0,5.4h-1.9l-.35-1H28.94v3.43h1.35l.35-1h1.9v1l5.6-.7v-2l-5.6-.7Zm0,5.4h-1.9l-.35-1H28.94v3.43h1.35l.35-1h1.9v1l5.6-.7v-2l-5.6-.71Zm0-16.2h-1.9l-.35-1H28.94v3.43h1.35l.35-1h1.9v1l5.6-.71v-2l-5.6-.7Zm0-10.81h-1.9l-.35-1H28.94v3.43h1.35l.35-1h1.9v1l5.6-.71v-2l-5.6-.7Zm0,5.41h-1.9l-.35-1H28.94v3.43h1.35l.35-1h1.9v1l5.6-.71V42l-5.6-.7Z"/><rect class="cls-4" x="11.76" y="2.01" width="56.45" height="23.02"/><text class="cls-5" transform="translate(19.18 21.08) scale(0.9 1)">RAR</text></g></g></svg>