<svg xmlns="http://www.w3.org/2000/svg" xmlns:xlink="http://www.w3.org/1999/xlink" viewBox="0 0 80 75"><defs><style>.cls-1{isolation:isolate;}.cls-2{fill:url(#linear-gradient);}.cls-3{fill:#221e1f;opacity:0.48;mix-blend-mode:multiply;}.cls-4{fill:url(#linear-gradient-2);}.cls-5{font-size:19.31px;fill:#fff;font-family:Arial-BoldMT, Arial;font-weight:700;letter-spacing:0.05em;}.cls-6{letter-spacing:0.03em;}</style><linearGradient id="linear-gradient" x1="40" y1="72.99" x2="40" y2="2.36" gradientUnits="userSpaceOnUse"><stop offset="0" stop-color="#dbdcdd"/><stop offset="0.14" stop-color="#e0e1e2"/><stop offset="0.58" stop-color="#ededee"/><stop offset="1" stop-color="#f1f1f2"/></linearGradient><linearGradient id="linear-gradient-2" x1="39.97" y1="25.04" x2="39.97" y2="2.01" gradientUnits="userSpaceOnUse"><stop offset="0" stop-color="#90268e"/><stop offset="1" stop-color="#a967a9"/></linearGradient></defs><g class="cls-1"><g id="圖層_1" data-name="圖層 1"><polygon class="cls-2" points="68.25 72.99 11.75 72.99 11.75 2.36 51.3 2.36 68.25 19.31 68.25 72.99"/><path class="cls-3" d="M23.75,31.92h3.64a.7.7,0,0,0,.69-.7.89.89,0,0,1,1.78,0,.7.7,0,1,0,1.4,0v-3a.7.7,0,0,0-1.4,0,.89.89,0,0,1-1.78,0,.69.69,0,0,0-.69-.7H23.75a.7.7,0,0,0-.7.7v3A.7.7,0,0,0,23.75,31.92Zm0,32.62h3.64a.69.69,0,0,0,.69-.69.89.89,0,1,1,1.78,0,.7.7,0,0,0,1.4,0V60.79a.7.7,0,0,0-1.4,0,.89.89,0,0,1-1.78,0,.69.69,0,0,0-.69-.69H23.75a.69.69,0,0,0-.7.69v3.06A.69.69,0,0,0,23.75,64.54Zm0-39.15h3.64a.69.69,0,0,0,.69-.7.89.89,0,1,1,1.78,0,.7.7,0,0,0,1.4,0V21.64a.7.7,0,1,0-1.4,0,.89.89,0,0,1-1.78,0,.69.69,0,0,0-.69-.7H23.75a.7.7,0,0,0-.7.7v3.05A.7.7,0,0,0,23.75,25.39Zm0,26.1h3.64a.69.69,0,0,0,.69-.7.89.89,0,1,1,1.78,0,.7.7,0,0,0,1.4,0v-3a.7.7,0,0,0-1.4,0,.89.89,0,1,1-1.78,0,.7.7,0,0,0-.69-.7H23.75a.7.7,0,0,0-.7.7v3A.7.7,0,0,0,23.75,51.49Zm0-6.52h3.64a.7.7,0,0,0,.69-.7.89.89,0,0,1,1.78,0,.7.7,0,1,0,1.4,0V41.22a.7.7,0,1,0-1.4,0,.89.89,0,0,1-1.78,0,.69.69,0,0,0-.69-.7H23.75a.7.7,0,0,0-.7.7v3.05A.7.7,0,0,0,23.75,45Zm0-6.53h3.64a.69.69,0,0,0,.69-.7.89.89,0,0,1,1.78,0,.7.7,0,1,0,1.4,0V34.69a.7.7,0,1,0-1.4,0,.89.89,0,0,1-1.78,0,.7.7,0,0,0-.69-.7H23.75a.7.7,0,0,0-.7.7v3.05A.7.7,0,0,0,23.75,38.44Zm12-35.89a.67.67,0,0,0,.47-.19H31.67a.67.67,0,0,0,.47.19Zm-6.34-.19h-1a.67.67,0,0,0,.47.19A.69.69,0,0,0,29.44,2.36Zm-5.69,16.5h3.64a.69.69,0,0,0,.69-.69.89.89,0,0,1,1.78,0,.7.7,0,0,0,1.4,0V15.11a.7.7,0,0,0-1.4,0,.89.89,0,0,1-1.78,0,.69.69,0,0,0-.69-.69H23.75a.69.69,0,0,0-.7.69v3.06A.69.69,0,0,0,23.75,18.86Zm0-13h3.64a.69.69,0,0,0,.69-.7.89.89,0,1,1,1.78,0,.7.7,0,0,0,1.4,0V2.36H29.81a.89.89,0,0,1-1.67,0H23.05V5.11A.7.7,0,0,0,23.75,5.81Zm0,6.53h3.64a.69.69,0,0,0,.69-.7.89.89,0,0,1,1.78,0,.7.7,0,0,0,1.4,0V8.59a.7.7,0,1,0-1.4,0,.89.89,0,1,1-1.78,0,.69.69,0,0,0-.69-.7H23.75a.7.7,0,0,0-.7.7v3.05A.7.7,0,0,0,23.75,12.34Zm0,45.68h3.64a.69.69,0,0,0,.69-.7.89.89,0,1,1,1.78,0,.7.7,0,0,0,1.4,0v-3a.7.7,0,0,0-1.4,0,.89.89,0,0,1-1.78,0,.69.69,0,0,0-.69-.7H23.75a.7.7,0,0,0-.7.7v3A.7.7,0,0,0,23.75,58Zm12-33.82H32.14a.7.7,0,0,0-.7.7.89.89,0,0,1-1.78,0,.7.7,0,0,0-1.4,0V28a.7.7,0,0,0,1.4,0,.89.89,0,0,1,1.78,0,.7.7,0,0,0,.7.7h3.64a.69.69,0,0,0,.69-.7V24.9A.7.7,0,0,0,35.78,24.2ZM29,69.48a.89.89,0,0,1,.89.89.7.7,0,1,0,1.4,0V67.32a.7.7,0,0,0-1.4,0,.89.89,0,0,1-1.78,0,.69.69,0,0,0-.69-.7H23.75a.7.7,0,0,0-.7.7v3.05a.7.7,0,0,0,.7.7h3.64a.69.69,0,0,0,.69-.7A.89.89,0,0,1,29,69.48Zm6.81-38.75H32.14a.7.7,0,0,0-.7.7.89.89,0,0,1-1.78,0,.7.7,0,0,0-1.4,0v3a.7.7,0,1,0,1.4,0,.89.89,0,1,1,1.78,0,.7.7,0,0,0,.7.7h3.64a.69.69,0,0,0,.69-.7v-3A.69.69,0,0,0,35.78,30.73Zm0,6.53H32.14a.69.69,0,0,0-.7.69.89.89,0,0,1-1.78,0,.7.7,0,0,0-1.4,0V41a.7.7,0,0,0,1.4,0,.89.89,0,0,1,1.78,0,.69.69,0,0,0,.7.69h3.64a.69.69,0,0,0,.69-.69V38A.69.69,0,0,0,35.78,37.26Zm0-32.63H32.14a.7.7,0,0,0-.7.7.89.89,0,1,1-1.78,0,.7.7,0,0,0-1.4,0V8.38a.7.7,0,0,0,1.4,0,.89.89,0,1,1,1.78,0,.7.7,0,0,0,.7.7h3.64a.7.7,0,0,0,.69-.7V5.33A.69.69,0,0,0,35.78,4.63Zm0,6.52H32.14a.7.7,0,0,0-.7.7.89.89,0,0,1-1.78,0,.7.7,0,0,0-1.4,0V14.9a.7.7,0,0,0,1.4,0,.89.89,0,0,1,1.78,0,.7.7,0,0,0,.7.7h3.64a.69.69,0,0,0,.69-.7V11.85A.7.7,0,0,0,35.78,11.15Zm0,6.53H32.14a.7.7,0,0,0-.7.7.89.89,0,0,1-1.78,0,.7.7,0,0,0-1.4,0v3.05a.7.7,0,0,0,1.4,0,.89.89,0,0,1,1.78,0,.7.7,0,0,0,.7.7h3.64a.7.7,0,0,0,.69-.7V18.38A.69.69,0,0,0,35.78,17.68Zm0,52.2H32.14a.7.7,0,0,0-.7.7.89.89,0,1,1-1.78,0,.7.7,0,1,0-1.4,0V73h1.68a.87.87,0,0,1,1.22,0h5.31V70.58A.7.7,0,0,0,35.78,69.88Zm0-6.52H32.14a.7.7,0,0,0-.7.7.89.89,0,0,1-1.78,0,.7.7,0,1,0-1.4,0v3a.7.7,0,0,0,1.4,0,.89.89,0,1,1,1.78,0,.7.7,0,0,0,.7.7h3.64a.7.7,0,0,0,.69-.7v-3A.69.69,0,0,0,35.78,63.36Zm0-6.53H32.14a.7.7,0,0,0-.7.7.89.89,0,0,1-1.78,0,.7.7,0,1,0-1.4,0v3a.7.7,0,0,0,1.4,0,.89.89,0,0,1,1.78,0,.7.7,0,0,0,.7.7h3.64a.69.69,0,0,0,.69-.7v-3A.7.7,0,0,0,35.78,56.83Zm0-13H32.14a.7.7,0,0,0-.7.7.89.89,0,0,1-1.78,0,.7.7,0,0,0-1.4,0v3.05a.7.7,0,1,0,1.4,0,.89.89,0,0,1,1.78,0,.7.7,0,0,0,.7.7h3.64a.69.69,0,0,0,.69-.7V44.48A.69.69,0,0,0,35.78,43.78Zm0,6.53H32.14a.7.7,0,0,0-.7.7.89.89,0,0,1-1.78,0,.7.7,0,0,0-1.4,0v3.05a.7.7,0,1,0,1.4,0,.89.89,0,0,1,1.78,0,.7.7,0,0,0,.7.7h3.64a.7.7,0,0,0,.69-.7V51A.69.69,0,0,0,35.78,50.31Z"/><rect class="cls-4" x="11.75" y="2.01" width="56.45" height="23.02"/><text class="cls-5" transform="translate(23.63 21.08)">ZI<tspan class="cls-6" x="19.09" y="0">P</tspan></text></g></g></svg>