<svg id="圖層_1" data-name="圖層 1" xmlns="http://www.w3.org/2000/svg" viewBox="0 0 35 30"><defs><style>.cls-1{fill:#fff;stroke:#666;stroke-miterlimit:10;stroke-width:1.26px;}.cls-2{fill:#666;}</style></defs><path class="cls-1" d="M27.65,8.07l-7-6.81H8.47A1.12,1.12,0,0,0,7.35,2.38V27.62a1.12,1.12,0,0,0,1.12,1.12H26.53a1.12,1.12,0,0,0,1.12-1.12V8.07Z"/><path class="cls-2" d="M27.65,8.08a.34.34,0,0,1-.34.34H20.78a.34.34,0,0,1-.34-.34V1.6a.34.34,0,0,1,.34-.34Z"/><path class="cls-2" d="M16.39,21.72V18.39H13.08V17h3.31V13.69h1.4V17H21.1v1.39H17.79v3.33Z"/></svg>