<svg id="圖層_1" data-name="圖層 1" xmlns="http://www.w3.org/2000/svg" viewBox="0 0 80 75"><defs><style>.cls-1{fill:#ff9c00;}.cls-2{fill:#fff;}.cls-3{fill:#ffb900;}</style></defs><g id="file"><path class="cls-1" d="M41.65,10.94,38.7,13.7a3.37,3.37,0,0,1-2.3.92H6.26A2.37,2.37,0,0,0,3.93,17V59.3H76.42V12.44A2.37,2.37,0,0,0,74.09,10H44A3.37,3.37,0,0,0,41.65,10.94Z"/><rect class="cls-2" x="7.66" y="16.37" width="64.42" height="46.33"/><path class="cls-3" d="M38.23,15.47,42.05,19a3,3,0,0,0,2,.81H75.54a2.31,2.31,0,0,1,2.22,2.67l.42,39.85A3,3,0,0,1,75.26,65H5.07a3,3,0,0,1-2.93-2.63l-.3-45a2.31,2.31,0,0,1,2.23-2.67H36.18A3,3,0,0,1,38.23,15.47Z"/></g></svg>