<svg id="圖層_1" data-name="圖層 1" xmlns="http://www.w3.org/2000/svg" viewBox="0 0 80 75"><defs><style>.cls-1{fill:#ffb900;}.cls-2{fill:#fff;}</style></defs><g id="file"><path class="cls-1" d="M41.76,9.62,39,12.15a3.3,3.3,0,0,1-2.2.84H8a2.22,2.22,0,0,0-2.22,2.23V54H75V11a2.22,2.22,0,0,0-2.23-2.22H44A3.3,3.3,0,0,0,41.76,9.62Z"/><rect class="cls-2" x="9.33" y="16.76" width="61.47" height="40.32"/><path class="cls-1" d="M38.52,24.26l3.58,3.19a2.89,2.89,0,0,0,1.92.73H76.08a2.1,2.1,0,0,1,2.08,2.4l-4.8,33.27a2.77,2.77,0,0,1-2.74,2.37H10.05a2.76,2.76,0,0,1-2.73-2.37L1.84,25.93a2.1,2.1,0,0,1,2.08-2.4H36.61A2.86,2.86,0,0,1,38.52,24.26Z"/></g></svg>